<?xml version="1.0" encoding="UTF-8"?>
<svg xmlns="http://www.w3.org/2000/svg" width="215.526mm" height="146.616mm" viewBox="35.237106 16.691916 215.525848 146.616226">
    <path transform="matrix(-0,1,-1,-0,239.314804,36.260498)" style="stroke:#000000;stroke-width:0.05mm;fill:none" d="M41.000008,204.077698L9,204.077652L9,200.077652L-3,200.077652L-3,195.077652L-7,195.077652L-7,186.982452L-3,186.982452L-2.999908,163.982452L9.000031,163.982452L9.000031,159.982452L41.000031,159.982513L41.000031,163.982513L53.063942,163.982513L53.063896,186.982513L57.000008,186.982513L57.000008,195.077698L53.063866,195.077698L53.063866,200.077698L41.000008,200.077698L41.000008,204.077698z"/>
    <path transform="matrix(-0,1,-1,-0,239.314804,36.260498)" style="stroke:#ff0000;stroke-width:0.05mm;fill:none" d="M20.000015,183.977646L7.000015,183.977646L7,195.977646L20.000008,195.977646L20.000015,183.977646z"/>
    <path transform="matrix(-0,1,-1,-0,239.314804,36.260498)" style="stroke:#ff0000;stroke-width:0.05mm;fill:none" d="M49.000015,183.977692L49,195.977692L39.000008,195.977692L39.000015,183.977692L49.000015,183.977692z"/>
    <path transform="matrix(-0,1,-1,-0,240.035004,37.813499)" style="stroke:#000000;stroke-width:0.05mm;fill:none" d="M116.394669,86.500015L121.494659,86.500015L121.494659,106.500023L125.494659,106.500023L125.494629,143.000031L121.494629,143.000031L121.494621,160.000015L116.494621,160.000015L116.494621,163.000015L108.399437,163.000015L108.399437,160.000015L85.399445,160.000015L85.399445,143L81.399445,143L81.399475,106.499977L85.399475,106.499977L85.399475,86.5L108.499481,86.500015L108.499481,89.500015L116.394669,89.500015L116.394669,86.500015z"/>
    <path transform="matrix(-0,1,-1,-0,239.494995,37.260502)" style="stroke:#000000;stroke-width:0.05mm;fill:none" d="M103.999992,160.161957L72,160.161957L72,164.161957L57,164.161957L57,169.261978L60,169.261978L60,177.157135L57,177.157135L57,200.257141L72,200.257141L72,204.257141L103.999977,204.257141L103.999977,200.257141L118.999977,200.257141L118.999977,177.157135L115.999977,177.157135L115.999992,169.261978L118.999992,169.261978L118.999992,164.161957L103.999992,164.161957L103.999992,160.161957z"/>
    <path transform="matrix(-1,-0,-0,1,344.512909,-15.058102)" style="stroke:#ff0000;stroke-width:0.05mm;fill:none" d="M103.350601,61.868088L103.350601,94.068069L99.150589,94.068069L99.150589,61.868088L103.350601,61.868088z"/>
    <path transform="matrix(-1,-0,-0,1,344.512909,-15.058102)" style="stroke:#ff0000;stroke-width:0.05mm;fill:none" d="M156.349915,46.367737L156.349915,50.567673L119.649918,50.567719L119.649918,46.367767L156.349915,46.367737z"/>
    <path transform="matrix(-1.4,-0,-0,1.4,383.812897,-33.845398)" style="stroke:#ff0000;stroke-width:0.05mm;fill:none" d="M96.801025,45.856339L96.950897,46.218124L97.18927,46.528763L97.499939,46.767151L97.861694,46.917007L98.249939,46.968124L98.638153,46.917007L98.999939,46.767151L99.310577,46.528763L99.54895,46.218124L99.698822,45.856339L99.749939,45.468124L99.698822,45.07988L99.54895,44.718124L99.310577,44.407455L98.999939,44.169067L98.638153,44.019226L98.249939,43.968124L97.861694,44.019226L97.499939,44.169067L97.18927,44.407455L96.950897,44.718124L96.801025,45.07988L96.749939,45.468124L96.801025,45.856339z"/>
    <path transform="matrix(-1.4,-0,-0,1.4,383.812897,-59.871002)" style="stroke:#ff0000;stroke-width:0.05mm;fill:none" d="M96.801056,110.920212L96.749969,110.531982L96.801056,110.143753L96.950928,109.781982L97.189301,109.471329L97.499969,109.232933L97.861725,109.083099L98.249969,109.031982L98.638184,109.083099L98.999969,109.232933L99.310608,109.471329L99.548981,109.781982L99.698853,110.143753L99.749969,110.531982L99.698853,110.920212L99.548981,111.281982L99.310608,111.592651L98.999969,111.831017L98.638184,111.980881L98.249969,112.031982L97.861725,111.980881L97.499969,111.831017L97.189301,111.592651L96.950928,111.281982L96.801056,110.920212z"/>
    <path transform="matrix(-1.4,-0,-0,1.4,415.612915,-59.870903)" style="stroke:#ff0000;stroke-width:0.05mm;fill:none" d="M176.689301,111.592613L176.450912,111.281937L176.301071,110.920174L176.249954,110.531937L176.301071,110.143707L176.450912,109.781937L176.689301,109.471283L176.999954,109.232887L177.361725,109.083054L177.749954,109.031937L178.138184,109.083054L178.499954,109.232887L178.810623,109.471283L179.048996,109.781937L179.198837,110.143707L179.249954,110.531937L179.198837,110.920174L179.048996,111.281937L178.810623,111.592613L178.499954,111.830978L178.138184,111.980827L177.749954,112.031937L177.361725,111.980827L176.999954,111.830978L176.689301,111.592613z"/>
    <path transform="matrix(-1,-0,-0,1,344.512909,-15.058102)" style="stroke:#ff0000;stroke-width:0.05mm;fill:none" d="M108.220757,68.433548L108.006737,68.086044L107.710083,67.805786L107.351013,67.611862L106.953934,67.517487L106.546043,67.529099L106.154968,67.645874L105.807457,67.859894L105.527222,68.156555L105.333282,68.51564L105.238922,68.912689L105.250504,69.320633L105.367264,69.71167L105.581284,70.059174L105.877983,70.339432L106.237083,70.533356L106.634087,70.627731L107.042053,70.616119L107.433067,70.499344L107.780579,70.285324L108.060852,69.988663L108.254784,69.629578L108.349152,69.232529L108.337547,68.824585L108.220757,68.433548z"/>
    <path transform="matrix(-1,-0,-0,1,344.512909,-15.058102)" style="stroke:#ff0000;stroke-width:0.05mm;fill:none" d="M119.649948,105.431458L156.349945,105.431458L156.349945,109.631409L119.649948,109.631447L119.649948,105.431458z"/>
    <path transform="matrix(-1.4,-0,-0,1.4,415.612915,-33.845299)" style="stroke:#ff0000;stroke-width:0.05mm;fill:none" d="M176.999924,44.169022L176.68927,44.407425L176.450882,44.718063L176.301041,45.079834L176.249924,45.468063L176.301041,45.856293L176.450882,46.218063L176.68927,46.528732L176.999924,46.767105L177.361694,46.916962L177.749924,46.968063L178.138153,46.916962L178.499924,46.767105L178.810593,46.528732L179.048965,46.218063L179.198807,45.856293L179.249924,45.468063L179.198807,45.079834L179.048965,44.718063L178.810593,44.407425L178.499924,44.169022L178.138153,44.01918L177.749924,43.968063L177.361694,44.01918L176.999924,44.169022z"/>
    <path transform="matrix(-1,-0,-0,1,344.512909,-15.058102)" style="stroke:#ff0000;stroke-width:0.05mm;fill:none" d="M158.306747,53.14061L158.010086,52.860352L157.651001,52.666428L157.253952,52.572037L156.846008,52.583633L156.454971,52.700424L156.107483,52.914444L155.827225,53.211105L155.633286,53.57019L155.53891,53.967239L155.550507,54.375183L155.667297,54.76622L155.881302,55.113708L156.177963,55.393967L156.537064,55.587891L156.934097,55.682281L157.342041,55.670685L157.733093,55.553894L158.080582,55.339874L158.36084,55.043213L158.554764,54.684128L158.649155,54.287079L158.637558,53.879135L158.520767,53.488083L158.306747,53.14061z"/>
    <path transform="matrix(-1,-0,-0,1,344.512909,-15.058102)" style="stroke:#ff0000;stroke-width:0.05mm;fill:none" d="M172.650818,94.0681L172.650787,61.868103L176.850739,61.868103L176.850769,94.0681L172.650818,94.0681z"/>
    <path transform="matrix(-1,-0,-0,1,344.512909,-15.058102)" style="stroke:#ff0000;stroke-width:0.05mm;fill:none" d="M105.878014,98.078629L105.581306,97.798363L105.367287,97.45089L105.250526,97.059845L105.238953,96.651909L105.333313,96.25486L105.527252,95.895767L105.807503,95.599106L106.154984,95.385086L106.546051,95.268303L106.953957,95.256699L107.351044,95.351074L107.710114,95.544998L108.006767,95.825256L108.220787,96.172745L108.337593,96.563797L108.349182,96.971733L108.254791,97.36879L108.060883,97.727875L107.780586,98.024536L107.433113,98.238533L107.042084,98.355339L106.634117,98.366943L106.237091,98.272568L105.878014,98.078629z"/>
    <path transform="matrix(-1,-0,-0,1,344.512909,-15.058102)" style="stroke:#000000;stroke-width:0.05mm;fill:none" d="M94.628601,41.846786L95.249939,41.370041L95.97348,41.070328L96.749939,40.968124L179.249924,40.968063L180.026382,41.070282L180.749924,41.369995L181.371246,41.846741L181.848007,42.468063L182.147705,43.191605L182.249924,43.968063L182.249954,112.031937L182.147736,112.808403L181.848038,113.531937L181.371277,114.153259L180.749954,114.63002L180.026413,114.929718L179.249954,115.031937L96.749969,115.031982L95.973511,114.929764L95.249969,114.630051L94.628632,114.153313L94.151886,113.531982L93.852173,112.808441L93.749969,112.031982L93.749939,43.968124L93.852142,43.19165L94.151855,42.468124L94.628601,41.846786z"/>
    <path transform="matrix(-0.000001,1.0226,-1.0226,-0.000001,244.425888,23.850246)" style="stroke:#ff0000;stroke-width:0.05mm;fill:none" d="M9.243271,109.243828L9.150009,108.943489L9.117508,108.62104L9.150009,108.298607L9.243271,107.998253L9.390793,107.726463L9.586166,107.489677L9.822952,107.294296L10.094711,107.146782L10.395035,107.053551L10.717514,107.021049L11.039993,107.053551L11.340317,107.146782L11.612076,107.294296L11.848862,107.489677L12.044235,107.726463L12.191757,107.998253L12.285019,108.298607L12.31752,108.62104L12.285019,108.943489L12.191757,109.243828L12.044235,109.515617L11.848862,109.752403L11.612076,109.947792L11.340317,110.095306L11.039993,110.188553L10.717514,110.221046L10.395035,110.188553L10.094711,110.095306L9.822952,109.947792L9.586166,109.752403L9.390793,109.515617L9.243271,109.243828z"/>
    <path transform="matrix(-0.000001,1.0226,-1.0226,-0.000001,244.425888,23.850246)" style="stroke:#ff0000;stroke-width:0.05mm;fill:none" d="M76.099823,139.261993L76.099823,107.061974L71.899902,107.061974L71.899811,139.261993L76.099823,139.261993z"/>
    <path transform="matrix(-0.000001,1.0226,-1.0226,-0.000001,244.425888,23.850246)" style="stroke:#ff0000;stroke-width:0.05mm;fill:none" d="M31.150009,108.298607L31.243271,107.998253L31.390793,107.726463L31.586166,107.489677L31.822952,107.294296L32.094711,107.146782L32.395035,107.053551L32.717514,107.021049L33.039993,107.053551L33.340317,107.146782L33.612076,107.294296L33.848862,107.489677L34.044235,107.726463L34.191757,107.998253L34.285019,108.298607L34.31752,108.62104L34.285019,108.943489L34.191757,109.243828L34.044235,109.515617L33.848862,109.752403L33.612076,109.947792L33.340317,110.095306L33.039993,110.188553L32.717514,110.221046L32.395035,110.188553L32.094711,110.095306L31.822952,109.947792L31.586166,109.752403L31.390793,109.515617L31.243271,109.243828L31.150009,108.943489L31.117508,108.62104L31.150009,108.298607z"/>
    <path transform="matrix(-0.000001,1.0226,-1.0226,-0.000001,244.425888,23.850246)" style="stroke:#ff0000;stroke-width:0.05mm;fill:none" d="M-1.598846,107.061913L-1.598907,139.261932L2.601044,139.261932L2.601105,107.061913L-1.598846,107.061913z"/>
    <path transform="matrix(-0.000001,1.0226,-1.0226,-0.000001,244.425888,23.850246)" style="stroke:#ff0000;stroke-width:0.05mm;fill:none" d="M12.191757,135.99826L12.285019,136.298615L12.31752,136.621063L12.285019,136.943512L12.191757,137.243835L12.044235,137.515625L11.848862,137.752441L11.612076,137.947815L11.340317,138.095337L11.039993,138.188568L10.717514,138.221069L10.395035,138.188568L10.094711,138.095337L9.822952,137.947815L9.586166,137.752441L9.390793,137.515625L9.243271,137.243835L9.150009,136.943512L9.117508,136.621063L9.150009,136.298615L9.243271,135.99826L9.390793,135.726471L9.586166,135.489685L9.822952,135.294312L10.094711,135.14679L10.395035,135.053558L10.717514,135.021057L11.039993,135.053558L11.340317,135.14679L11.612076,135.294312L11.848862,135.489685L12.044235,135.726471L12.191757,135.99826z"/>
    <path transform="matrix(-0.000001,1.0226,-1.0226,-0.000001,244.425888,23.850246)" style="stroke:#ff0000;stroke-width:0.05mm;fill:none" d="M14.217514,108.621063L14.217514,138.547791L29.217514,138.621063L29.217514,108.621063L14.217514,108.621063z"/>
    <path transform="matrix(-0.000001,1.0226,-1.0226,-0.000001,244.425888,23.850246)" style="stroke:#ff0000;stroke-width:0.05mm;fill:none" d="M18.899979,150.561279L18.899979,154.761261L55.59996,154.761261L55.59996,150.561279L18.899979,150.561279z"/>
    <path transform="matrix(-0.000001,1.0226,-1.0226,-0.000001,244.425888,23.850246)" style="stroke:#ff0000;stroke-width:0.05mm;fill:none" d="M32.717514,138.221069L32.395035,138.188568L32.094711,138.095337L31.822952,137.947815L31.586166,137.752441L31.390793,137.515625L31.243271,137.243835L31.150009,136.943512L31.117508,136.621063L31.150009,136.298615L31.243271,135.99826L31.390793,135.726471L31.586166,135.489685L31.822952,135.294312L32.094711,135.14679L32.395035,135.053558L32.717514,135.021057L33.039993,135.053558L33.340317,135.14679L33.612076,135.294312L33.848862,135.489685L34.044235,135.726471L34.191757,135.99826L34.285019,136.298615L34.31752,136.621063L34.285019,136.943512L34.191757,137.243835L34.044235,137.515625L33.848862,137.752441L33.612076,137.947815L33.340317,138.095337L33.039993,138.188568L32.717514,138.221069z"/>
    <circle transform="matrix(1.0226,0.000001,-0.000001,1.0226,118.513107,83.08989)" style="stroke:#ff0000;stroke-width:0.05mm;fill:none" r="3.5" cx="0" cy="0"/>
    <path transform="matrix(-0.000001,1.43164,-1.43164,-0.000001,308.098083,-8.259356)" style="stroke:#ff0000;stroke-width:0.05mm;fill:none" d="M75.700958,156.411957L75.939301,156.722626L76.249969,156.960999L76.611725,157.11087L76.999969,157.161957L77.388214,157.11087L77.749969,156.960999L78.060638,156.722626L78.299042,156.411957L78.448883,156.050201L78.499969,155.661957L78.448883,155.273743L78.299042,154.911957L78.060638,154.601318L77.749969,154.362946L77.388214,154.213104L76.999969,154.161957L76.611725,154.213104L76.249969,154.362946L75.939301,154.601318L75.700958,154.911957L75.551056,155.273743L75.499969,155.661957L75.551056,156.050201L75.700958,156.411957z"/>
    <path transform="matrix(-0.000001,1.0226,-1.0226,-0.000001,244.425888,23.850246)" style="stroke:#ff0000;stroke-width:0.05mm;fill:none" d="M18.900009,95.697594L55.600021,95.697594L55.600021,91.497627L18.900009,91.497581L18.900009,95.697594z"/>
    <path transform="matrix(-0.000001,1.43164,-1.43164,-0.000001,308.098083,24.259327)" style="stroke:#ff0000;stroke-width:0.05mm;fill:none" d="M-3.560654,154.601257L-3.25,154.362915L-2.888229,154.213043L-2.5,154.161926L-2.111771,154.213043L-1.75,154.362915L-1.439346,154.601257L-1.200958,154.911926L-1.051117,155.273712L-1,155.661926L-1.051117,156.05014L-1.200958,156.411926L-1.439346,156.722595L-1.75,156.960968L-2.111771,157.110809L-2.5,157.161926L-2.888229,157.110809L-3.25,156.960968L-3.560654,156.722595L-3.799042,156.411926L-3.948883,156.05014L-4,155.661926L-3.948883,155.273712L-3.799042,154.911926L-3.560654,154.601257z"/>
    <path transform="matrix(-0.000001,1.0226,-1.0226,-0.000001,244.425888,23.850246)" style="stroke:#000000;stroke-width:0.05mm;fill:none" d="M-4,160.161926L-4.776459,160.059692L-5.5,159.76001L-6.121323,159.283264L-6.598083,158.661926L-6.897781,157.938385L-7,157.161926L-6.999969,89.098045L-6.897751,88.321602L-6.598053,87.598045L-6.121292,86.976738L-5.499969,86.499977L-4.776428,86.200264L-3.999969,86.098045L78.500031,86.098091L79.276459,86.20031L80.000031,86.500023L80.621307,86.976768L81.098114,87.598106L81.397797,88.321648L81.500031,89.098091L81.499969,157.161957L81.397736,157.938416L81.098053,158.661957L80.621307,159.283295L79.999969,159.76004L79.276459,160.059753L78.499969,160.161957L-4,160.161926z"/>
    <path transform="matrix(-0.000001,1.43164,-1.43164,-0.000001,281.483917,-8.259373)" style="stroke:#ff0000;stroke-width:0.05mm;fill:none" d="M75.939362,91.65876L75.700958,91.348091L75.551117,90.98632L75.500031,90.598091L75.551117,90.209877L75.700958,89.848091L75.939362,89.537437L76.250031,89.299065L76.611786,89.149208L77.000031,89.098091L77.388214,89.149208L77.750031,89.299065L78.060699,89.537437L78.299042,89.848091L78.448883,90.209877L78.500031,90.598091L78.448883,90.98632L78.299042,91.348091L78.060699,91.65876L77.750031,91.897133L77.388214,92.046989L77.000031,92.098091L76.611786,92.046989L76.250031,91.897133L75.939362,91.65876z"/>
    <path transform="matrix(-0.000001,1.43164,-1.43164,-0.000001,281.483917,24.25931)" style="stroke:#ff0000;stroke-width:0.05mm;fill:none" d="M-1.439316,91.658714L-1.200928,91.348045L-1.051086,90.986275L-0.999969,90.598045L-1.051086,90.209831L-1.200928,89.848045L-1.439316,89.537392L-1.749969,89.299004L-2.11174,89.149162L-2.499969,89.098045L-2.888199,89.149162L-3.249969,89.299004L-3.560623,89.537392L-3.799011,89.848045L-3.948853,90.209831L-3.999969,90.598045L-3.948853,90.986275L-3.799011,91.348045L-3.560623,91.658714L-3.249969,91.897087L-2.888199,92.046944L-2.499969,92.098045L-2.11174,92.046944L-1.749969,91.897087L-1.439316,91.658714z"/>
    <circle transform="matrix(-1.0226,-0,-0,1.0226,217.341507,112.978851)" style="stroke:#ff0000;stroke-width:0.05mm;fill:none" r="1.5" cx="0" cy="0"/>
    <path transform="matrix(-1.0226,-0,-0,1.0226,253.055817,72.440231)" style="stroke:#000000;stroke-width:0.05mm;fill:none" d="M14.675474,43.183456L10.675474,43.183456L10.675474,51.278641L14.675474,51.278641L14.675485,74.278641L31.675505,74.278641L31.675505,78.278641L68.175507,78.27861L68.175507,74.27861L88.175484,74.27861L88.175476,51.178604L85.175476,51.178604L85.175476,43.283417L88.175476,43.283417L88.175476,38.183426L68.175476,38.183426L68.175476,34.183426L31.675474,34.183456L31.675474,38.183456L14.675474,38.183456L14.675474,43.183456z"/>
    <circle transform="matrix(-1.0226,-0,-0,1.0226,187.686096,112.978851)" style="stroke:#ff0000;stroke-width:0.05mm;fill:none" r="1.5" cx="0" cy="0"/>
    <circle transform="matrix(-1.0226,-0,-0,1.0226,217.341507,128.317444)" style="stroke:#ff0000;stroke-width:0.05mm;fill:none" r="1.5" cx="0" cy="0"/>
    <rect transform="matrix(1.0226,0,0,1.0226,231.657913,120.845306)" style="stroke:#ff0000;stroke-width:0.05mm;fill:none" x="-5" y="-1.5" width="10" height="3"/>
    <circle transform="matrix(-1.0226,-0,-0,1.0226,187.686096,128.317444)" style="stroke:#ff0000;stroke-width:0.05mm;fill:none" r="1.5" cx="0" cy="0"/>
    <rect transform="matrix(1.0226,0,0,1.0226,173.369705,120.845306)" style="stroke:#ff0000;stroke-width:0.05mm;fill:none" x="-5" y="-1.5" width="10" height="3"/>
</svg>
